<svg xmlns="http://www.w3.org/2000/svg" width="192" height="192" viewBox="0 0 192 192">
  <defs>
    <linearGradient id="tile" x1="0" y1="0" x2="0" y2="1">
      <stop offset="0" stop-color="#1E1E26"/>
      <stop offset="1" stop-color="#101014"/>
    </linearGradient>
    <linearGradient id="glyphgrad" x1="0" y1="0" x2="0" y2="1">
      <stop offset="0" stop-color="#F5F1E8"/>
      <stop offset="1" stop-color="#D9D2C5"/>
    </linearGradient>
  </defs>
  <rect x="10.4" y="9.5" width="171.2" height="171.2" rx="34"
        fill="url(#tile)" stroke="#2A2A31" stroke-width="1.5"/>
  <g fill="url(#glyphgrad)"
     transform="translate(40.8 36.8) scale(4.6)"><path d="M13 7.83c.85-.3 1.53-.98 1.83-1.83H18l-3 7c0 1.66 1.57 3 3.5 3s3.5-1.34 3.5-3l-3-7h2V4h-6.17c-.41-1.17-1.52-2-2.83-2s-2.42.83-2.83 2H3v2h2l-3 7c0 1.66 1.57 3 3.5 3S9 14.66 9 13L6 6h3.17c.3.85.98 1.53 1.83 1.83V19H2v2h20v-2h-9V7.83zM20.37 13h-3.74l1.87-4.36L20.37 13zm-13 0H3.63L5.5 8.64 7.37 13zM12 6c-.55 0-1-.45-1-1s.45-1 1-1 1 .45 1 1-.45 1-1 1z"/></g>
  <rect x="76" y="156" width="40" height="6" rx="3" fill="#C1121F"/>
</svg>
