<svg xmlns="http://www.w3.org/2000/svg" width="192" height="192" viewBox="0 0 192 192">
  <defs>
    <linearGradient id="tile" x1="0" y1="0" x2="0" y2="1">
      <stop offset="0" stop-color="#1E1E26"/>
      <stop offset="1" stop-color="#101014"/>
    </linearGradient>
    <linearGradient id="glyphgrad" x1="0" y1="0" x2="0" y2="1">
      <stop offset="0" stop-color="#F5F1E8"/>
      <stop offset="1" stop-color="#D9D2C5"/>
    </linearGradient>
  </defs>
  <rect x="10.4" y="9.5" width="171.2" height="171.2" rx="34"
        fill="url(#tile)" stroke="#2A2A31" stroke-width="1.5"/>
  <g fill="url(#glyphgrad)"
     transform="translate(40.8 36.8) scale(4.6)"><path d="M3.069 9.7h3.42L6.3 6.932H0v10.136h3.069V13.8h2.789v-2.778H3.069ZM24 6.932h-3.291L19.48 9.1l-1.231-2.168h-3.292l2.871 5.076-2.871 5.06h3.308l1.215-2.142 1.213 2.142H24l-2.871-5.06Zm-12.592 0A5.067 5.067 0 1 0 16.475 12a5.067 5.067 0 0 0-5.067-5.065Zm.888 7.146a.867.867 0 0 1-.873.847.847.847 0 0 1-.837-.858V9.919a.882.882 0 0 1 .837-.9.913.913 0 0 1 .873.9Z"/></g>
  <rect x="76" y="156" width="40" height="6" rx="3" fill="#C1121F"/>
</svg>
