<svg xmlns="http://www.w3.org/2000/svg" width="192" height="192" viewBox="0 0 192 192">
  <defs>
    <linearGradient id="tile" x1="0" y1="0" x2="0" y2="1">
      <stop offset="0" stop-color="#1E1E26"/>
      <stop offset="1" stop-color="#101014"/>
    </linearGradient>
    <linearGradient id="bone" x1="0" y1="0" x2="0" y2="1">
      <stop offset="0" stop-color="#F5F1E8"/>
      <stop offset="1" stop-color="#D9D2C5"/>
    </linearGradient>
  </defs>
  <rect x="10.4" y="9.5" width="171.2" height="171.2" rx="34"
        fill="url(#tile)" stroke="#2A2A31" stroke-width="1.5"/>
  <g fill="url(#bone)"
     transform="translate(40.8 36.8) scale(4.6)"><path d="M12 17.333q-1.667 0-2.833-1.166Q8 15 8 13.333q0-1.666 1.167-2.833Q10.333 9.333 12 9.333q1.667 0 2.833 1.167Q16 11.667 16 13.333q0 1.667-1.167 2.834-1.166 1.166-2.833 1.166Zm8 5.334q-1.1 0-1.883-.784-.784-.783-.784-1.883t.784-1.883q.783-.784 1.883-.784t1.883.784q.784.783.784 1.883t-.784 1.883q-.783.784-1.883.784ZM5.333 24q-2.2 0-3.766-1.567Q0 20.867 0 18.667V16h2.667v2.667q0 1.1.783 1.883.783.783 1.883.783H12V24Zm16-10.667V8q0-1.1-.783-1.883-.783-.784-1.883-.784H5.333q-1.1 0-1.883.784Q2.667 6.9 2.667 8v4H0V8q0-2.2 1.567-3.767 1.566-1.566 3.766-1.566H8L9.333 0h5.334L16 2.667h2.667q2.2 0 3.766 1.566Q24 5.8 24 8v5.333z"/></g>
  <rect x="76" y="156" width="40" height="6" rx="3" fill="#C1121F"/>
</svg>
