<svg xmlns="http://www.w3.org/2000/svg" width="192" height="192" viewBox="0 0 192 192">
  <defs>
    <linearGradient id="tile" x1="0" y1="0" x2="0" y2="1">
      <stop offset="0" stop-color="#1E1E26"/>
      <stop offset="1" stop-color="#101014"/>
    </linearGradient>
    <linearGradient id="bone" x1="0" y1="0" x2="0" y2="1">
      <stop offset="0" stop-color="#F5F1E8"/>
      <stop offset="1" stop-color="#D9D2C5"/>
    </linearGradient>
  </defs>
  <rect x="10.4" y="9.5" width="171.2" height="171.2" rx="34"
        fill="url(#tile)" stroke="#2A2A31" stroke-width="1.5"/>
  <g fill="url(#bone)"
     transform="translate(40.8 36.8) scale(4.6)"><path d="M4.928 1.825c-1.09.553-1.09.64-.07 1.78 5.655 6.295 7.004 7.782 7.107 7.782.139.017 7.971-8.542 8.058-8.801.034-.07-.208-.312-.519-.536-.415-.312-.864-.433-1.712-.467-1.59-.104-2.144.242-4.115 2.455-.899 1.003-1.66 1.833-1.66 1.833-.017 0-.76-.813-1.642-1.798S8.473 2.1 8.127 1.91c-.796-.45-2.421-.484-3.2-.086zM1.297 4.367C.45 4.695 0 5.007 0 5.248c0 .121 1.331 1.678 2.94 3.459 1.625 1.78 2.939 3.268 2.939 3.302 0 .035-1.331 1.522-2.94 3.303C1.314 17.11.017 18.683.035 18.822c.086.467 1.504 1.055 2.541 1.055 1.678-.018 2.058-.312 5.603-4.202 1.78-1.954 3.233-3.614 3.233-3.666 0-.069-1.435-1.694-3.199-3.63-2.3-2.508-3.423-3.632-3.96-3.874-.812-.398-2.126-.467-2.956-.138zm18.467.12c-.502.26-1.764 1.505-3.943 3.891-1.763 1.937-3.199 3.562-3.199 3.631 0 .07 1.453 1.712 3.234 3.666 3.544 3.89 3.925 4.184 5.602 4.202 1.038 0 2.455-.588 2.542-1.055.017-.156-1.28-1.712-2.905-3.493-1.608-1.78-2.94-3.285-2.94-3.32 0-.034 1.332-1.539 2.94-3.32C22.72 6.91 24.017 5.352 24 5.214c-.087-.45-1.366-.968-2.473-1.038-.795-.034-1.21.035-1.763.312zM7.954 16.973c-2.144 2.369-3.908 4.374-3.943 4.46-.034.07.208.312.52.537.414.311.864.432 1.711.467 1.574.103 2.161-.26 4.15-2.508.864-.968 1.608-1.78 1.625-1.78s.761.812 1.643 1.798c2.023 2.248 2.559 2.576 4.132 2.49.848-.035 1.297-.156 1.712-.467.311-.225.553-.467.519-.536-.087-.26-7.92-8.819-8.058-8.801-.069 0-1.867 1.954-4.011 4.34z"/></g>
  <rect x="76" y="156" width="40" height="6" rx="3" fill="#C1121F"/>
</svg>
