<svg xmlns="http://www.w3.org/2000/svg" width="192" height="192" viewBox="0 0 192 192">
  <defs>
    <linearGradient id="tile" x1="0" y1="0" x2="0" y2="1">
      <stop offset="0" stop-color="#1E1E26"/>
      <stop offset="1" stop-color="#101014"/>
    </linearGradient>
    <linearGradient id="glyphgrad" x1="0" y1="0" x2="0" y2="1">
      <stop offset="0" stop-color="#F5F1E8"/>
      <stop offset="1" stop-color="#D9D2C5"/>
    </linearGradient>
  </defs>
  <rect x="10.4" y="9.5" width="171.2" height="171.2" rx="34"
        fill="url(#tile)" stroke="#2A2A31" stroke-width="1.5"/>
  <g fill="url(#glyphgrad)"
     transform="translate(40.8 36.8) scale(4.6)"><path d="M22.3977 7.0896h-2.3106V.0676l-7.5094 6.3542V.1577h-1.1554v6.1966L4.4904 0v7.0896H1.6023v10.3976h2.8882V24l6.932-6.3591v6.2005h1.1554v-6.0469l6.9318 6.1807v-6.4879h2.8882V7.0896zm-3.4657-4.531v4.531h-5.355l5.355-4.531zm-13.2862.0676 4.8691 4.4634H5.6458V2.6262zM2.7576 16.332V8.245h7.8476l-6.1149 6.1147v1.9723H2.7576zm2.8882 5.0404v-3.8852h.0001v-2.6488l5.7763-5.7764v7.0111l-5.7764 5.2993zm12.7086.0248-5.7766-5.1509V9.0618l5.7766 5.7766v6.5588zm2.8882-5.0652h-1.733v-1.9723L13.3948 8.245h7.8478v8.087z"/></g>
  <rect x="76" y="156" width="40" height="6" rx="3" fill="#C1121F"/>
</svg>
