<svg xmlns="http://www.w3.org/2000/svg" width="192" height="192" viewBox="0 0 192 192">
  <defs>
    <linearGradient id="tile" x1="0" y1="0" x2="0" y2="1">
      <stop offset="0" stop-color="#1E1E26"/>
      <stop offset="1" stop-color="#101014"/>
    </linearGradient>
    <linearGradient id="glyphgrad" x1="0" y1="0" x2="0" y2="1">
      <stop offset="0" stop-color="#F5F1E8"/>
      <stop offset="1" stop-color="#D9D2C5"/>
    </linearGradient>
  </defs>
  <rect x="10.4" y="9.5" width="171.2" height="171.2" rx="34"
        fill="url(#tile)" stroke="#2A2A31" stroke-width="1.5"/>
  <g fill="url(#glyphgrad)"
     transform="translate(40.8 36.8) scale(4.6)"><path d="M18.31 0l-.35.01c-1.55.13-2.46 1.2-2.6 2.28-.15 1.2.65 2.4 2.58 2.28 2.15-.12 3.09-1.2 3.1-2.28.02-1.15-1-2.28-2.73-2.29zM7.21.34A2.66 2.66 0 004.56 2.6C4.41 3.73 5.12 4.87 7 4.85c2.23-.04 3.31-1.37 3.16-2.57-.12-1-1.09-1.92-2.94-1.94zm12.35 8.71a7 7 0 00-.4.02c-5.28.54-5.54.6-15.26.82C-.2 9.9.62 24 9.38 24c8.2 0 18.12-15.15 10.18-14.95zm-1.1 2.7c3.18-.07-2.9 9.53-8.8 9.56-7.46 0-6.44-8.8-5.18-8.85 8.67-.35 10.88-.64 13.98-.71Z"/></g>
  <rect x="76" y="156" width="40" height="6" rx="3" fill="#C1121F"/>
</svg>
