<svg xmlns="http://www.w3.org/2000/svg" width="192" height="192" viewBox="0 0 192 192">
  <defs>
    <linearGradient id="tile" x1="0" y1="0" x2="0" y2="1">
      <stop offset="0" stop-color="#1E1E26"/>
      <stop offset="1" stop-color="#101014"/>
    </linearGradient>
    <linearGradient id="glyphgrad" x1="0" y1="0" x2="0" y2="1">
      <stop offset="0" stop-color="#F5F1E8"/>
      <stop offset="1" stop-color="#D9D2C5"/>
    </linearGradient>
  </defs>
  <rect x="10.4" y="9.5" width="171.2" height="171.2" rx="34"
        fill="url(#tile)" stroke="#2A2A31" stroke-width="1.5"/>
  <g fill="url(#glyphgrad)"
     transform="translate(40.8 36.8) scale(4.6)"><path d="M0 0v24h24V0zm13.515 6.75a.75.75 0 0 1 .696.987l-3 9a.75.75 0 0 1-.711.513.75.75 0 0 1-.712-.987l3-9a.75.75 0 0 1 .727-.513zm-4.499.002a.75.75 0 0 1 .695.985l-3 9A.75.75 0 0 1 6 17.25a.75.75 0 0 1-.712-.987l3-9a.75.75 0 0 1 .728-.511zm9 0a.75.75 0 0 1 .695.985l-3 9a.75.75 0 0 1-.711.513.75.75 0 0 1-.712-.987l3-9a.75.75 0 0 1 .728-.511z"/></g>
  <rect x="76" y="156" width="40" height="6" rx="3" fill="#C1121F"/>
</svg>
